<?xml version="1.0" standalone="no"?>
<!DOCTYPE svg PUBLIC "-//W3C//DTD SVG 20010904//EN"
 "http://www.w3.org/TR/2001/REC-SVG-20010904/DTD/svg10.dtd">
<svg version="1.0" xmlns="http://www.w3.org/2000/svg"
 width="960.000000pt" height="960.000000pt" viewBox="0 0 960.000000 960.000000"
 preserveAspectRatio="xMidYMid meet">

<g transform="translate(0.000000,960.000000) scale(0.100000,-0.100000)"
fill="#000000" stroke="none">
<path d="M0 4800 l0 -4800 4800 0 4800 0 0 4800 0 4800 -4800 0 -4800 0 0
-4800z m9376 4684 c49 -4 67 -11 85 -30 l24 -26 0 -4621 c0 -2542 -3 -4634 -8
-4649 -5 -21 -17 -30 -50 -40 -33 -10 -1002 -12 -4658 -13 -4416 0 -4618 1
-4637 18 -15 14 -21 36 -26 100 -4 59 -11 9132 -7 9224 2 37 13 38 1176 43
1436 7 8020 2 8101 -6z"/>
<path d="M4586 9049 c-616 -35 -1164 -177 -1696 -440 -277 -136 -580 -328
-784 -494 -177 -144 -421 -376 -531 -505 -17 -19 -55 -64 -86 -100 -126 -147
-316 -419 -429 -615 -241 -419 -427 -935 -504 -1395 -117 -698 -72 -1408 129
-2030 116 -359 213 -575 403 -900 270 -460 539 -775 982 -1151 204 -173 512
-376 810 -532 380 -199 922 -355 1475 -424 178 -22 718 -25 900 -5 696 77
1368 316 1910 679 354 236 560 408 804 668 106 113 288 325 321 373 14 20 52
75 85 122 129 181 214 325 331 561 231 464 374 978 425 1529 15 161 15 553 0
745 -27 336 -109 736 -215 1043 -69 199 -90 249 -187 452 -167 345 -384 676
-624 950 -300 343 -668 652 -1047 879 -116 69 -401 207 -570 275 -370 150
-685 232 -1090 286 -290 38 -517 46 -812 29z m-1199 -305 c-3 -3 -12 -4 -19
-1 -8 3 -5 6 6 6 11 1 17 -2 13 -5z m-102 -33 c-6 -5 -21 -11 -35 -15 -21 -5
-20 -3 5 9 35 17 42 18 30 6z m-70 -30 c-6 -5 -21 -12 -35 -15 l-25 -7 25 15
c28 17 50 21 35 7z m-130 -57 c-27 -14 -83 -39 -122 -55 -139 -59 -559 -309
-679 -405 -23 -18 -63 -50 -90 -70 -27 -20 -70 -55 -95 -78 -25 -23 -68 -59
-94 -81 -42 -35 -225 -216 -342 -338 -24 -24 -43 -50 -43 -57 0 -7 -3 -11 -6
-7 -6 6 -117 -118 -125 -139 -2 -6 -30 -46 -62 -90 -72 -99 -207 -292 -226
-325 -8 -13 -25 -44 -38 -68 -13 -24 -37 -62 -52 -85 -27 -39 -92 -172 -88
-180 1 -2 -6 -13 -17 -25 -24 -27 -61 -106 -98 -211 -16 -47 -42 -112 -57
-145 -31 -67 -51 -122 -76 -210 -9 -33 -27 -89 -40 -125 -51 -144 -88 -299
-115 -485 -28 -190 -50 -397 -50 -470 0 -33 -5 -67 -10 -75 -7 -11 -9 -4 -6
25 3 22 8 90 11 150 12 239 70 598 126 787 17 57 42 140 55 185 70 240 224
588 382 863 57 97 236 361 314 461 206 263 539 588 798 780 230 170 581 376
785 461 103 43 134 49 60 12z m2260 -3 c146 -19 474 -84 505 -101 8 -4 50 -17
92 -29 151 -41 409 -142 603 -236 421 -205 783 -474 1118 -829 280 -299 482
-593 668 -974 217 -443 312 -776 370 -1292 19 -171 21 -230 16 -475 -3 -154
-11 -314 -16 -355 -6 -41 -16 -109 -22 -150 -29 -210 -99 -492 -179 -727 -131
-383 -376 -812 -659 -1153 -517 -623 -1188 -1066 -1951 -1289 -1027 -300
-2195 -136 -3120 437 -292 182 -507 354 -753 606 -299 305 -544 651 -723 1021
-226 466 -348 935 -384 1480 -11 172 1 518 25 685 69 491 201 911 413 1315 80
153 110 203 215 360 242 361 545 679 902 947 505 380 1080 625 1718 733 288
49 370 54 717 50 217 -3 335 -9 445 -24z m-4788 -3958 c-1 -43 -3 -10 -3 72 0
83 2 118 3 78 2 -40 2 -107 0 -150z m8158 -665 c-98 -486 -231 -838 -474
-1253 -156 -266 -346 -509 -591 -756 -217 -218 -265 -261 -448 -398 -143 -106
-382 -262 -382 -248 0 2 46 33 101 68 150 94 362 254 496 373 502 445 859 950
1096 1551 84 213 150 447 203 718 9 48 19 85 22 83 2 -3 -8 -65 -23 -138z
m-1905 -2663 c0 -2 -13 -11 -30 -20 -38 -19 -40 -11 -2 9 31 17 32 18 32 11z
m-89 -53 c-27 -19 -141 -73 -141 -67 0 5 151 84 160 84 3 0 -6 -8 -19 -17z"/>
<path d="M1560 4830 l0 -700 445 0 445 0 0 113 0 112 -312 0 -313 0 0 193 0
193 235 2 235 2 3 108 3 107 -241 0 -240 0 2 173 3 172 298 3 298 2 -3 108 -3
107 -427 3 -428 2 0 -700z"/>
<path d="M6250 4831 l0 -701 130 0 130 0 0 265 0 265 118 0 c195 1 335 38 438
116 134 102 184 356 102 519 -52 102 -123 159 -253 202 -78 26 -88 27 -372 31
l-293 4 0 -701z m548 474 c94 -28 145 -101 144 -205 -1 -77 -18 -123 -64 -167
-47 -46 -97 -60 -241 -68 l-127 -7 0 231 0 231 118 0 c77 0 136 -5 170 -15z"/>
<path d="M3848 5373 l-88 -4 0 -119 0 -120 -85 0 -85 0 0 -100 0 -100 85 0 85
0 0 -268 c0 -396 17 -456 150 -522 62 -32 200 -39 301 -16 41 9 80 20 87 24
10 7 10 28 1 106 l-12 98 -26 -6 c-63 -15 -140 -18 -174 -7 -69 23 -72 34 -75
329 l-4 262 132 0 131 0 -3 98 -3 97 -127 3 -128 3 0 124 0 125 -37 -2 c-21
-1 -77 -4 -125 -5z"/>
<path d="M3078 5145 c-75 -19 -132 -48 -190 -96 -26 -21 -49 -39 -52 -39 -3 0
-6 17 -6 38 0 83 1 82 -121 82 l-109 0 0 -500 0 -500 125 0 125 0 0 338 c0
305 2 340 18 364 37 56 120 101 208 113 64 8 112 -10 145 -56 l24 -34 5 -360
5 -360 125 0 125 0 0 385 c0 381 -1 386 -24 444 -62 155 -222 227 -403 181z"/>
<path d="M4849 5141 c-65 -25 -115 -67 -154 -124 l-33 -49 -6 43 c-3 24 -7 60
-8 79 l-3 35 -106 3 -106 3 -7 -77 c-4 -42 -4 -267 0 -500 l7 -424 124 0 123
0 0 288 c0 231 3 299 15 340 17 56 62 115 104 136 39 20 113 28 159 18 35 -8
42 -7 46 7 10 37 28 222 22 229 -16 16 -132 12 -177 -7z"/>
<path d="M5440 5134 c-190 -41 -338 -179 -385 -359 -24 -93 -20 -239 9 -329
69 -219 282 -350 541 -333 103 6 193 37 275 92 74 50 111 93 150 174 39 80 52
142 51 256 0 213 -89 368 -256 451 -74 36 -196 65 -273 63 -26 0 -76 -7 -112
-15z m201 -190 c78 -23 139 -88 163 -174 38 -135 16 -301 -51 -380 -103 -123
-314 -113 -398 20 -88 139 -64 404 44 489 41 33 112 60 157 61 17 0 55 -7 85
-16z"/>
<path d="M7260 5127 c0 -10 63 -184 204 -560 86 -229 156 -427 156 -440 -1
-32 -37 -107 -68 -140 -43 -46 -74 -57 -157 -57 l-75 0 0 -104 0 -104 64 -6
c127 -14 249 25 326 104 52 54 84 116 169 325 106 263 381 971 381 981 0 2
-55 3 -122 2 l-121 -3 -23 -65 c-12 -36 -54 -157 -94 -270 -40 -113 -86 -247
-102 -298 -16 -52 -32 -92 -34 -89 -5 4 -38 99 -213 612 l-38 110 -126 3 c-70
1 -127 1 -127 -1z"/>
</g>
</svg>
